<?xml version="1.0" encoding="iso-8859-1"?>
<!-- Generator: Adobe Illustrator 19.0.0, SVG Export Plug-In . SVG Version: 6.00 Build 0)  -->
<svg version="1.1" id="Capa_1" xmlns="http://www.w3.org/2000/svg" xmlns:xlink="http://www.w3.org/1999/xlink" x="0px" y="0px"
	 viewBox="0 0 511.993 511.993" style="enable-background:new 0 0 511.993 511.993;" xml:space="preserve">
<linearGradient id="SVGID_1_" gradientUnits="userSpaceOnUse" x1="69.654" y1="448.2119" x2="416.1364" y2="101.7296" gradientTransform="matrix(1.0449 0 0 -1.0449 2.1993 543.3086)">
	<stop  offset="0" style="stop-color:#8689FF"/>
	<stop  offset="1" style="stop-color:#1B2DDD"/>
</linearGradient>
<circle style="fill:url(#SVGID_1_);" cx="255.996" cy="255.996" r="255.996"/>
<linearGradient id="SVGID_2_" gradientUnits="userSpaceOnUse" x1="203.5452" y1="274.8092" x2="452.5452" y2="275.8092" gradientTransform="matrix(1.0449 0 0 -1.0449 2.1993 543.3086)">
	<stop  offset="0" style="stop-color:#FFFFFF"/>
	<stop  offset="1" style="stop-color:#DAD9DD"/>
</linearGradient>
<path style="fill:url(#SVGID_2_);" d="M413.229,330.285c1.655-17.031,2.914-40.94,2.914-74.286c0-33.345-1.258-57.254-2.914-74.285
	c4.223-2.673,8.331-5.929,12.161-9.759c19.297-19.297,24.287-45.593,11.147-58.734s-39.437-8.15-58.734,11.147
	c-1.447,1.447-2.803,2.938-4.089,4.455c-25.655-8.433-65.992-17.915-117.714-17.915s-92.058,9.481-117.714,17.915
	c-1.284-1.517-2.641-3.008-4.089-4.455c-19.297-19.297-45.592-24.287-58.734-11.147c-13.14,13.14-8.15,39.437,11.147,58.734
	c3.829,3.829,7.938,7.086,12.161,9.759c-1.655,17.031-2.914,40.94-2.914,74.285s1.258,57.254,2.914,74.286
	c-4.223,2.673-8.331,5.93-12.161,9.759c-19.297,19.297-24.287,45.592-11.147,58.734c13.14,13.14,39.437,8.15,58.734-11.147
	c1.447-1.447,2.803-2.937,4.089-4.455c25.655,8.433,65.992,17.915,117.714,17.915s92.059-9.481,117.714-17.915
	c1.284,1.517,2.641,3.008,4.089,4.455c19.297,19.297,45.593,24.287,58.734,11.147s8.15-39.437-11.147-58.734
	C421.56,336.215,417.453,332.958,413.229,330.285z"/>
<linearGradient id="SVGID_3_" gradientUnits="userSpaceOnUse" x1="148.5661" y1="274.9673" x2="337.2311" y2="274.9673" gradientTransform="matrix(1.0449 0 0 -1.0449 2.1993 543.3086)">
	<stop  offset="0" style="stop-color:#FFF57E"/>
	<stop  offset="1" style="stop-color:#EFC400"/>
</linearGradient>
<path style="fill:url(#SVGID_3_);" d="M311.854,179.332c-43.431-0.039-55.857,32.276-55.857,32.276s-12.419-32.315-55.851-32.276
	c-37.154,0.033-95.354,76.644,55.851,153.332v0.003c0.001-0.001,0.002-0.001,0.003-0.001c0.001,0,0.002,0.001,0.003,0.001v-0.003
	C407.209,255.976,349.009,179.366,311.854,179.332z"/>
<linearGradient id="SVGID_4_" gradientUnits="userSpaceOnUse" x1="172.574" y1="274.9672" x2="313.2233" y2="274.9672" gradientTransform="matrix(1.0449 0 0 -1.0449 2.1993 543.3086)">
	<stop  offset="0" style="stop-color:#FFC858"/>
	<stop  offset="1" style="stop-color:#FF633E"/>
</linearGradient>
<path style="fill:url(#SVGID_4_);" d="M297.639,202.711c-32.378-0.027-41.642,26.405-41.642,26.405s-9.259-26.432-41.636-26.405
	c-27.699,0.023-71.087,53.272,41.636,106.575v0.002c0.001,0,0.001-0.001,0.002-0.001s0.002,0.001,0.002,0.001v-0.002
	C368.726,255.984,325.338,202.734,297.639,202.711z"/>
<g>
</g>
<g>
</g>
<g>
</g>
<g>
</g>
<g>
</g>
<g>
</g>
<g>
</g>
<g>
</g>
<g>
</g>
<g>
</g>
<g>
</g>
<g>
</g>
<g>
</g>
<g>
</g>
<g>
</g>
</svg>
